<mxfile host="app.diagrams.net" agent="Mozilla/5.0 (Windows NT 10.0; Win64; x64) AppleWebKit/537.36 (KHTML, like Gecko) Chrome/131.0.0.0 Safari/537.36" version="25.0.3">
  <diagram id="C5RBs43oDa-KdzZeNtuy" name="Page-1">
    <mxGraphModel dx="1313" dy="1822" grid="1" gridSize="10" guides="1" tooltips="1" connect="1" arrows="1" fold="1" page="1" pageScale="1" pageWidth="827" pageHeight="1169" math="0" shadow="0">
      <root>
        <mxCell id="WIyWlLk6GJQsqaUBKTNV-0" />
        <mxCell id="WIyWlLk6GJQsqaUBKTNV-1" parent="WIyWlLk6GJQsqaUBKTNV-0" />
        <mxCell id="pRA2BXGbEzdeUcMq1POD-0" value="" style="edgeStyle=orthogonalEdgeStyle;rounded=0;orthogonalLoop=1;jettySize=auto;html=1;" edge="1" parent="WIyWlLk6GJQsqaUBKTNV-1" source="pRA2BXGbEzdeUcMq1POD-1" target="pRA2BXGbEzdeUcMq1POD-20">
          <mxGeometry relative="1" as="geometry" />
        </mxCell>
        <mxCell id="pRA2BXGbEzdeUcMq1POD-1" value="START" style="ellipse;whiteSpace=wrap;html=1;" vertex="1" parent="WIyWlLk6GJQsqaUBKTNV-1">
          <mxGeometry x="150" y="-90" width="120" height="80" as="geometry" />
        </mxCell>
        <mxCell id="pRA2BXGbEzdeUcMq1POD-2" value="" style="edgeStyle=orthogonalEdgeStyle;rounded=0;orthogonalLoop=1;jettySize=auto;html=1;" edge="1" parent="WIyWlLk6GJQsqaUBKTNV-1" source="pRA2BXGbEzdeUcMq1POD-3" target="pRA2BXGbEzdeUcMq1POD-6">
          <mxGeometry relative="1" as="geometry" />
        </mxCell>
        <mxCell id="pRA2BXGbEzdeUcMq1POD-3" value="n" style="shape=parallelogram;perimeter=parallelogramPerimeter;whiteSpace=wrap;html=1;fixedSize=1;" vertex="1" parent="WIyWlLk6GJQsqaUBKTNV-1">
          <mxGeometry x="150" y="230" width="120" height="60" as="geometry" />
        </mxCell>
        <mxCell id="pRA2BXGbEzdeUcMq1POD-5" value="" style="edgeStyle=orthogonalEdgeStyle;rounded=0;orthogonalLoop=1;jettySize=auto;html=1;" edge="1" parent="WIyWlLk6GJQsqaUBKTNV-1" source="pRA2BXGbEzdeUcMq1POD-6">
          <mxGeometry relative="1" as="geometry">
            <mxPoint x="210" y="560" as="targetPoint" />
          </mxGeometry>
        </mxCell>
        <mxCell id="pRA2BXGbEzdeUcMq1POD-54" style="edgeStyle=orthogonalEdgeStyle;rounded=0;orthogonalLoop=1;jettySize=auto;html=1;entryX=0;entryY=0.5;entryDx=0;entryDy=0;" edge="1" parent="WIyWlLk6GJQsqaUBKTNV-1" source="pRA2BXGbEzdeUcMq1POD-6" target="pRA2BXGbEzdeUcMq1POD-18">
          <mxGeometry relative="1" as="geometry" />
        </mxCell>
        <mxCell id="pRA2BXGbEzdeUcMq1POD-6" value="count &amp;lt;= n" style="rhombus;whiteSpace=wrap;html=1;" vertex="1" parent="WIyWlLk6GJQsqaUBKTNV-1">
          <mxGeometry x="160" y="360" width="100" height="100" as="geometry" />
        </mxCell>
        <mxCell id="pRA2BXGbEzdeUcMq1POD-7" value="True" style="text;html=1;align=center;verticalAlign=middle;resizable=0;points=[];autosize=1;strokeColor=none;fillColor=none;" vertex="1" parent="WIyWlLk6GJQsqaUBKTNV-1">
          <mxGeometry x="330" y="380" width="50" height="30" as="geometry" />
        </mxCell>
        <mxCell id="pRA2BXGbEzdeUcMq1POD-8" value="False" style="text;html=1;align=center;verticalAlign=middle;resizable=0;points=[];autosize=1;strokeColor=none;fillColor=none;rotation=90;" vertex="1" parent="WIyWlLk6GJQsqaUBKTNV-1">
          <mxGeometry x="200" y="488" width="50" height="30" as="geometry" />
        </mxCell>
        <mxCell id="pRA2BXGbEzdeUcMq1POD-9" value="" style="edgeStyle=orthogonalEdgeStyle;rounded=0;orthogonalLoop=1;jettySize=auto;html=1;" edge="1" parent="WIyWlLk6GJQsqaUBKTNV-1" source="pRA2BXGbEzdeUcMq1POD-11">
          <mxGeometry relative="1" as="geometry">
            <mxPoint x="1461" y="1475" as="targetPoint" />
          </mxGeometry>
        </mxCell>
        <mxCell id="pRA2BXGbEzdeUcMq1POD-10" value="" style="edgeStyle=orthogonalEdgeStyle;rounded=0;orthogonalLoop=1;jettySize=auto;html=1;" edge="1" parent="WIyWlLk6GJQsqaUBKTNV-1" source="pRA2BXGbEzdeUcMq1POD-11" target="pRA2BXGbEzdeUcMq1POD-16">
          <mxGeometry relative="1" as="geometry" />
        </mxCell>
        <mxCell id="pRA2BXGbEzdeUcMq1POD-11" value="num % i == 0" style="rhombus;whiteSpace=wrap;html=1;" vertex="1" parent="WIyWlLk6GJQsqaUBKTNV-1">
          <mxGeometry x="1261" y="1465" width="100" height="100" as="geometry" />
        </mxCell>
        <mxCell id="pRA2BXGbEzdeUcMq1POD-12" value="True" style="text;html=1;align=center;verticalAlign=middle;resizable=0;points=[];autosize=1;strokeColor=none;fillColor=none;" vertex="1" parent="WIyWlLk6GJQsqaUBKTNV-1">
          <mxGeometry x="1381" y="1445" width="50" height="30" as="geometry" />
        </mxCell>
        <mxCell id="pRA2BXGbEzdeUcMq1POD-14" value="check = 0" style="shape=parallelogram;perimeter=parallelogramPerimeter;whiteSpace=wrap;html=1;fixedSize=1;" vertex="1" parent="WIyWlLk6GJQsqaUBKTNV-1">
          <mxGeometry x="1458" y="1450" width="117" height="60" as="geometry" />
        </mxCell>
        <mxCell id="pRA2BXGbEzdeUcMq1POD-16" value="i++" style="whiteSpace=wrap;html=1;" vertex="1" parent="WIyWlLk6GJQsqaUBKTNV-1">
          <mxGeometry x="1251" y="1625" width="120" height="60" as="geometry" />
        </mxCell>
        <mxCell id="pRA2BXGbEzdeUcMq1POD-17" value="False" style="text;html=1;align=center;verticalAlign=middle;resizable=0;points=[];autosize=1;strokeColor=none;fillColor=none;rotation=90;" vertex="1" parent="WIyWlLk6GJQsqaUBKTNV-1">
          <mxGeometry x="1301" y="1565" width="50" height="30" as="geometry" />
        </mxCell>
        <mxCell id="pRA2BXGbEzdeUcMq1POD-18" value="END" style="ellipse;whiteSpace=wrap;html=1;" vertex="1" parent="WIyWlLk6GJQsqaUBKTNV-1">
          <mxGeometry x="450" y="370" width="120" height="80" as="geometry" />
        </mxCell>
        <mxCell id="pRA2BXGbEzdeUcMq1POD-19" value="" style="edgeStyle=orthogonalEdgeStyle;rounded=0;orthogonalLoop=1;jettySize=auto;html=1;" edge="1" parent="WIyWlLk6GJQsqaUBKTNV-1" source="pRA2BXGbEzdeUcMq1POD-20" target="pRA2BXGbEzdeUcMq1POD-3">
          <mxGeometry relative="1" as="geometry" />
        </mxCell>
        <mxCell id="pRA2BXGbEzdeUcMq1POD-20" value="num, i = 2, j, check, count = 1" style="rounded=0;whiteSpace=wrap;html=1;" vertex="1" parent="WIyWlLk6GJQsqaUBKTNV-1">
          <mxGeometry x="150" y="80" width="120" height="60" as="geometry" />
        </mxCell>
        <mxCell id="pRA2BXGbEzdeUcMq1POD-21" value="" style="edgeStyle=orthogonalEdgeStyle;rounded=0;orthogonalLoop=1;jettySize=auto;html=1;" edge="1" parent="WIyWlLk6GJQsqaUBKTNV-1" source="pRA2BXGbEzdeUcMq1POD-23" target="pRA2BXGbEzdeUcMq1POD-25">
          <mxGeometry relative="1" as="geometry" />
        </mxCell>
        <mxCell id="pRA2BXGbEzdeUcMq1POD-23" value="check == 1" style="rhombus;whiteSpace=wrap;html=1;" vertex="1" parent="WIyWlLk6GJQsqaUBKTNV-1">
          <mxGeometry x="580" y="880" width="100" height="100" as="geometry" />
        </mxCell>
        <mxCell id="pRA2BXGbEzdeUcMq1POD-25" value="i" style="shape=parallelogram;perimeter=parallelogramPerimeter;whiteSpace=wrap;html=1;fixedSize=1;" vertex="1" parent="WIyWlLk6GJQsqaUBKTNV-1">
          <mxGeometry x="780" y="898.75" width="120" height="62.5" as="geometry" />
        </mxCell>
        <mxCell id="pRA2BXGbEzdeUcMq1POD-28" value="True" style="text;html=1;align=center;verticalAlign=middle;resizable=0;points=[];autosize=1;strokeColor=none;fillColor=none;" vertex="1" parent="WIyWlLk6GJQsqaUBKTNV-1">
          <mxGeometry x="700" y="900" width="50" height="30" as="geometry" />
        </mxCell>
        <mxCell id="pRA2BXGbEzdeUcMq1POD-38" value="" style="edgeStyle=orthogonalEdgeStyle;rounded=0;orthogonalLoop=1;jettySize=auto;html=1;" edge="1" parent="WIyWlLk6GJQsqaUBKTNV-1" source="pRA2BXGbEzdeUcMq1POD-30" target="pRA2BXGbEzdeUcMq1POD-33">
          <mxGeometry relative="1" as="geometry" />
        </mxCell>
        <mxCell id="pRA2BXGbEzdeUcMq1POD-30" value="j = 2&lt;div&gt;check = 1&lt;/div&gt;" style="rounded=0;whiteSpace=wrap;html=1;" vertex="1" parent="WIyWlLk6GJQsqaUBKTNV-1">
          <mxGeometry x="150" y="560" width="120" height="60" as="geometry" />
        </mxCell>
        <mxCell id="pRA2BXGbEzdeUcMq1POD-50" value="" style="edgeStyle=orthogonalEdgeStyle;rounded=0;orthogonalLoop=1;jettySize=auto;html=1;" edge="1" parent="WIyWlLk6GJQsqaUBKTNV-1" source="pRA2BXGbEzdeUcMq1POD-33" target="pRA2BXGbEzdeUcMq1POD-42">
          <mxGeometry relative="1" as="geometry" />
        </mxCell>
        <mxCell id="pRA2BXGbEzdeUcMq1POD-66" style="edgeStyle=orthogonalEdgeStyle;rounded=0;orthogonalLoop=1;jettySize=auto;html=1;exitX=0;exitY=0.5;exitDx=0;exitDy=0;entryX=0;entryY=1;entryDx=0;entryDy=0;" edge="1" parent="WIyWlLk6GJQsqaUBKTNV-1" source="pRA2BXGbEzdeUcMq1POD-45" target="pRA2BXGbEzdeUcMq1POD-33">
          <mxGeometry relative="1" as="geometry">
            <Array as="points">
              <mxPoint x="90" y="1070" />
              <mxPoint x="90" y="785" />
            </Array>
          </mxGeometry>
        </mxCell>
        <mxCell id="pRA2BXGbEzdeUcMq1POD-67" style="edgeStyle=orthogonalEdgeStyle;rounded=0;orthogonalLoop=1;jettySize=auto;html=1;exitX=0;exitY=0;exitDx=0;exitDy=0;" edge="1" parent="WIyWlLk6GJQsqaUBKTNV-1" source="pRA2BXGbEzdeUcMq1POD-33">
          <mxGeometry relative="1" as="geometry">
            <mxPoint x="50" y="735.4444444444443" as="targetPoint" />
          </mxGeometry>
        </mxCell>
        <mxCell id="pRA2BXGbEzdeUcMq1POD-33" value="j &amp;lt; i" style="rhombus;whiteSpace=wrap;html=1;" vertex="1" parent="WIyWlLk6GJQsqaUBKTNV-1">
          <mxGeometry x="160" y="710" width="100" height="100" as="geometry" />
        </mxCell>
        <mxCell id="pRA2BXGbEzdeUcMq1POD-34" value="True" style="text;html=1;align=center;verticalAlign=middle;resizable=0;points=[];autosize=1;strokeColor=none;fillColor=none;rotation=0;" vertex="1" parent="WIyWlLk6GJQsqaUBKTNV-1">
          <mxGeometry x="100" y="710" width="50" height="30" as="geometry" />
        </mxCell>
        <mxCell id="pRA2BXGbEzdeUcMq1POD-72" style="edgeStyle=orthogonalEdgeStyle;rounded=0;orthogonalLoop=1;jettySize=auto;html=1;entryX=0;entryY=0.5;entryDx=0;entryDy=0;" edge="1" parent="WIyWlLk6GJQsqaUBKTNV-1" source="pRA2BXGbEzdeUcMq1POD-36" target="pRA2BXGbEzdeUcMq1POD-6">
          <mxGeometry relative="1" as="geometry">
            <mxPoint x="40" y="620" as="targetPoint" />
            <Array as="points">
              <mxPoint x="420" y="1160" />
              <mxPoint x="50" y="1160" />
              <mxPoint x="50" y="410" />
            </Array>
          </mxGeometry>
        </mxCell>
        <mxCell id="pRA2BXGbEzdeUcMq1POD-36" value="i++" style="whiteSpace=wrap;html=1;" vertex="1" parent="WIyWlLk6GJQsqaUBKTNV-1">
          <mxGeometry x="360" y="1040" width="120" height="60" as="geometry" />
        </mxCell>
        <mxCell id="pRA2BXGbEzdeUcMq1POD-37" value="False" style="text;html=1;align=center;verticalAlign=middle;resizable=0;points=[];autosize=1;strokeColor=none;fillColor=none;rotation=90;" vertex="1" parent="WIyWlLk6GJQsqaUBKTNV-1">
          <mxGeometry x="200" y="830" width="50" height="30" as="geometry" />
        </mxCell>
        <mxCell id="pRA2BXGbEzdeUcMq1POD-41" value="" style="edgeStyle=orthogonalEdgeStyle;rounded=0;orthogonalLoop=1;jettySize=auto;html=1;" edge="1" source="pRA2BXGbEzdeUcMq1POD-42" target="pRA2BXGbEzdeUcMq1POD-45" parent="WIyWlLk6GJQsqaUBKTNV-1">
          <mxGeometry relative="1" as="geometry" />
        </mxCell>
        <mxCell id="pRA2BXGbEzdeUcMq1POD-52" value="" style="edgeStyle=orthogonalEdgeStyle;rounded=0;orthogonalLoop=1;jettySize=auto;html=1;" edge="1" parent="WIyWlLk6GJQsqaUBKTNV-1" source="pRA2BXGbEzdeUcMq1POD-42" target="pRA2BXGbEzdeUcMq1POD-51">
          <mxGeometry relative="1" as="geometry" />
        </mxCell>
        <mxCell id="pRA2BXGbEzdeUcMq1POD-42" value="num % i == 0" style="rhombus;whiteSpace=wrap;html=1;" vertex="1" parent="WIyWlLk6GJQsqaUBKTNV-1">
          <mxGeometry x="160" y="880" width="100" height="100" as="geometry" />
        </mxCell>
        <mxCell id="pRA2BXGbEzdeUcMq1POD-43" value="True" style="text;html=1;align=center;verticalAlign=middle;resizable=0;points=[];autosize=1;strokeColor=none;fillColor=none;" vertex="1" parent="WIyWlLk6GJQsqaUBKTNV-1">
          <mxGeometry x="270" y="900" width="50" height="30" as="geometry" />
        </mxCell>
        <mxCell id="pRA2BXGbEzdeUcMq1POD-45" value="j++" style="whiteSpace=wrap;html=1;" vertex="1" parent="WIyWlLk6GJQsqaUBKTNV-1">
          <mxGeometry x="150" y="1040" width="120" height="60" as="geometry" />
        </mxCell>
        <mxCell id="pRA2BXGbEzdeUcMq1POD-46" value="False" style="text;html=1;align=center;verticalAlign=middle;resizable=0;points=[];autosize=1;strokeColor=none;fillColor=none;rotation=90;" vertex="1" parent="WIyWlLk6GJQsqaUBKTNV-1">
          <mxGeometry x="200" y="980" width="50" height="30" as="geometry" />
        </mxCell>
        <mxCell id="pRA2BXGbEzdeUcMq1POD-55" style="edgeStyle=orthogonalEdgeStyle;rounded=0;orthogonalLoop=1;jettySize=auto;html=1;" edge="1" parent="WIyWlLk6GJQsqaUBKTNV-1" source="pRA2BXGbEzdeUcMq1POD-51" target="pRA2BXGbEzdeUcMq1POD-23">
          <mxGeometry relative="1" as="geometry" />
        </mxCell>
        <mxCell id="pRA2BXGbEzdeUcMq1POD-70" value="" style="edgeStyle=orthogonalEdgeStyle;rounded=0;orthogonalLoop=1;jettySize=auto;html=1;" edge="1" parent="WIyWlLk6GJQsqaUBKTNV-1" source="pRA2BXGbEzdeUcMq1POD-51" target="pRA2BXGbEzdeUcMq1POD-36">
          <mxGeometry relative="1" as="geometry" />
        </mxCell>
        <mxCell id="pRA2BXGbEzdeUcMq1POD-51" value="check = 0" style="rounded=0;whiteSpace=wrap;html=1;" vertex="1" parent="WIyWlLk6GJQsqaUBKTNV-1">
          <mxGeometry x="360" y="900" width="120" height="60" as="geometry" />
        </mxCell>
      </root>
    </mxGraphModel>
  </diagram>
</mxfile>
